<?xml version="1.0" encoding="iso-8859-1"?>
<!-- Uploaded to: SVG Repo, www.svgrepo.com, Generator: SVG Repo Mixer Tools -->
<svg fill="#000000" height="800px" width="800px" version="1.1" id="Layer_1" xmlns="http://www.w3.org/2000/svg" xmlns:xlink="http://www.w3.org/1999/xlink" 
	 viewBox="0 0 512 512" xml:space="preserve">
<g>
	<g>
		<g>
			<path d="M186.097,219.523h139.807c16.542,0,30.001-13.458,30.001-30.003V99.337c0-6.035-4.894-10.928-10.928-10.928H260.46
				l-27.232-26.676c-2.043-2.001-4.789-3.121-7.648-3.121h-58.557c-6.035,0-10.928,4.894-10.928,10.928v119.982
				C156.095,206.065,169.553,219.523,186.097,219.523z M177.952,80.469h43.168l27.232,26.676c2.043,2.001,4.789,3.121,7.648,3.121
				h78.049v79.255c0,4.49-3.654,8.145-8.145,8.145H186.097c-4.49,0-8.145-3.654-8.145-8.145V80.469z"/>
			<path d="M188.88,322.274h-84.515l-27.232-26.676c-2.042-2.001-4.789-3.121-7.648-3.121H10.928C4.894,292.477,0,297.371,0,303.405
				v119.982c0,16.543,13.458,30.001,30,30.001h139.807c16.543,0,30.001-13.458,30.001-30.003v-90.183
				C199.808,327.168,194.915,322.274,188.88,322.274z M177.952,423.387c0,4.49-3.654,8.145-8.145,8.145H30
				c-4.49,0-8.144-3.654-8.144-8.145V314.335h43.168l27.232,26.676c2.042,2.001,4.789,3.121,7.648,3.121h78.048V423.387z"/>
			<path d="M501.072,322.274h-84.515l-27.232-26.676c-2.042-2.001-4.789-3.121-7.648-3.121H323.12
				c-6.035,0-10.928,4.894-10.928,10.928v119.982c0,16.543,13.458,30.001,30.001,30.001H482c16.541,0,30-13.458,30-30.003v-90.183
				C512,327.168,507.106,322.274,501.072,322.274z M490.143,423.387c0,4.49-3.653,8.145-8.144,8.145H342.193
				c-4.49,0-8.145-3.654-8.145-8.145V314.335h43.168l27.232,26.676c2.042,2.001,4.789,3.121,7.648,3.121h78.048V423.387z"/>
			<path d="M277.97,417.192c-14.458,2.175-29.476,2.176-43.938,0c-5.958-0.901-11.534,3.212-12.432,9.181
				c-0.898,5.968,3.212,11.535,9.181,12.432c8.303,1.25,16.787,1.883,25.219,1.883s16.917-0.633,25.221-1.883
				c5.969-0.897,10.078-6.464,9.181-12.432C289.503,420.403,283.932,416.292,277.97,417.192z"/>
			<path d="M98.544,281.713c0.038,0.001,0.074,0.001,0.111,0.001c5.984-0.001,10.866-4.822,10.925-10.82
				c0.256-25.583,7.141-50.49,19.966-72.398c2.836-1.975,4.692-5.259,4.692-8.975v-1.766c0-4.855-3.202-9.128-7.862-10.49
				c-4.659-1.363-9.657,0.513-12.274,4.604c-16.94,26.503-26.062,57.213-26.378,88.808
				C87.664,276.712,92.509,281.653,98.544,281.713z"/>
			<path d="M382.456,198.499c7.88,13.445,13.511,27.953,16.763,43.204c1.095,5.135,5.63,8.652,10.678,8.652
				c0.755,0,1.522-0.079,2.288-0.243c5.902-1.258,9.667-7.064,8.409-12.966c-4.195-19.679-11.833-38.275-22.699-55.276
				c-2.614-4.09-7.615-5.968-12.274-4.604c-4.659,1.362-7.862,5.636-7.862,10.49v1.766
				C377.76,193.24,379.618,196.526,382.456,198.499z"/>
			<path d="M402.438,272.392l-0.011,0.774c-0.045,6.035,4.812,10.964,10.847,11.009c0.027,0,0.055,0,0.083,0
				c5.996,0,10.881-4.84,10.926-10.847l0.003-0.26c0.004-0.225,0.008-0.449,0.008-0.675c0-6.035-4.894-10.928-10.928-10.928
				C407.332,261.464,402.438,266.357,402.438,272.392z"/>
		</g>
	</g>
</g>
</svg>